<svg width="413" height="472" viewBox="0 0 413 472" fill="none" xmlns="http://www.w3.org/2000/svg">
<path d="M136.247 265.13H99.4236C93.3477 265.13 88.3765 260.158 88.3765 254.083V217.259C88.3765 211.183 93.3477 206.212 99.4236 206.212H136.247C142.323 206.212 147.294 211.183 147.294 217.259V254.083C147.294 260.158 142.323 265.13 136.247 265.13ZM235.671 254.083V217.259C235.671 211.183 230.7 206.212 224.624 206.212H187.8C181.724 206.212 176.753 211.183 176.753 217.259V254.083C176.753 260.158 181.724 265.13 187.8 265.13H224.624C230.7 265.13 235.671 260.158 235.671 254.083ZM324.047 254.083V217.259C324.047 211.183 319.076 206.212 313 206.212H276.177C270.101 206.212 265.13 211.183 265.13 217.259V254.083C265.13 260.158 270.101 265.13 276.177 265.13H313C319.076 265.13 324.047 260.158 324.047 254.083ZM235.671 342.459V305.635C235.671 299.56 230.7 294.588 224.624 294.588H187.8C181.724 294.588 176.753 299.56 176.753 305.635V342.459C176.753 348.535 181.724 353.506 187.8 353.506H224.624C230.7 353.506 235.671 348.535 235.671 342.459ZM147.294 342.459V305.635C147.294 299.56 142.323 294.588 136.247 294.588H99.4236C93.3477 294.588 88.3765 299.56 88.3765 305.635V342.459C88.3765 348.535 93.3477 353.506 99.4236 353.506H136.247C142.323 353.506 147.294 348.535 147.294 342.459ZM324.047 342.459V305.635C324.047 299.56 319.076 294.588 313 294.588H276.177C270.101 294.588 265.13 299.56 265.13 305.635V342.459C265.13 348.535 270.101 353.506 276.177 353.506H313C319.076 353.506 324.047 348.535 324.047 342.459ZM412.424 103.106V427.153C412.424 451.549 392.631 471.341 368.236 471.341H44.1883C19.7927 471.341 0 451.549 0 427.153V103.106C0 78.7103 19.7927 58.9177 44.1883 58.9177H88.3765V11.0471C88.3765 4.97118 93.3477 0 99.4236 0H136.247C142.323 0 147.294 4.97118 147.294 11.0471V58.9177H265.13V11.0471C265.13 4.97118 270.101 0 276.177 0H313C319.076 0 324.047 4.97118 324.047 11.0471V58.9177H368.236C392.631 58.9177 412.424 78.7103 412.424 103.106ZM368.236 421.63V147.294H44.1883V421.63C44.1883 424.668 46.6739 427.153 49.7118 427.153H362.712C365.75 427.153 368.236 424.668 368.236 421.63Z" fill="black"/>
</svg>
