<svg width="1276" height="1134" viewBox="0 0 1276 1134" fill="none" xmlns="http://www.w3.org/2000/svg">
<path d="M1248.84 0H1073.91C1050.22 0 1038.48 28.5639 1055.09 45.3922L1092.51 82.8131L984.678 190.647C935.522 159.648 877.287 141.712 814.845 141.712C740.225 141.712 671.804 167.398 617.334 210.133C648.333 247.111 672.69 289.846 688.411 336.566C720.518 303.795 765.246 283.424 814.845 283.424C912.494 283.424 991.985 362.916 991.985 460.565C991.985 558.213 912.494 637.705 814.845 637.705C765.467 637.705 720.518 617.334 688.411 584.563C672.69 631.283 648.555 674.019 617.334 710.997C671.583 753.953 740.225 779.417 814.845 779.417C990.878 779.417 1133.7 636.598 1133.7 460.565C1133.7 398.123 1115.76 339.888 1084.76 290.731L1192.6 182.897L1230.02 220.318C1235.33 225.632 1241.97 228.068 1248.62 228.068C1262.35 228.068 1275.41 217.44 1275.41 201.497V26.571C1275.41 11.957 1263.45 0 1248.84 0ZM318.852 141.712C142.819 141.712 0 284.531 0 460.565C0 612.241 106.063 739.339 247.996 771.446V885.701H168.283C153.669 885.701 141.712 897.658 141.712 912.272V1000.84C141.712 1015.46 153.669 1027.41 168.283 1027.41H247.996V1107.13C247.996 1121.74 259.953 1133.7 274.567 1133.7H363.137C377.752 1133.7 389.708 1121.74 389.708 1107.13V1027.41H469.422C484.036 1027.41 495.993 1015.46 495.993 1000.84V912.272C495.993 897.658 484.036 885.701 469.422 885.701H389.708V771.446C531.642 739.118 637.705 612.241 637.705 460.565C637.705 284.531 494.885 141.712 318.852 141.712ZM318.852 637.705C221.204 637.705 141.712 558.213 141.712 460.565C141.712 362.916 221.204 283.424 318.852 283.424C416.501 283.424 495.993 362.916 495.993 460.565C495.993 558.213 416.501 637.705 318.852 637.705Z" fill="black"/>
</svg>
