<?xml version="1.0" standalone="no"?>
<!DOCTYPE svg PUBLIC "-//W3C//DTD SVG 20010904//EN"
 "http://www.w3.org/TR/2001/REC-SVG-20010904/DTD/svg10.dtd">
<svg version="1.0" xmlns="http://www.w3.org/2000/svg" viewBox="0 0 1925.000000 571.000000"
 preserveAspectRatio="xMidYMid meet">

<g transform="translate(0.000000,571.000000) scale(0.100000,-0.100000)"
fill="#000000" stroke="none">
<path d="M3410 4249 c-307 -32 -628 -186 -838 -401 l-42 -44 -53 49 c-217 205
-494 323 -830 357 -72 7 -304 10 -647 8 l-535 -3 -3 -1027 c-2 -820 0 -1028
10 -1027 7 0 155 69 328 152 l315 153 3 597 2 597 208 0 c231 0 300 -8 418
-49 239 -82 400 -283 444 -556 5 -32 11 -60 14 -62 2 -2 176 78 386 179 l381
182 50 63 c120 153 283 233 511 249 l103 7 358 171 c196 93 356 175 354 180
-5 14 -188 110 -267 141 -203 78 -438 107 -670 84z"/>
<path d="M13659 4124 c-119 -21 -235 -61 -349 -120 -240 -124 -388 -277 -511
-529 -157 -322 -153 -750 11 -1075 109 -215 300 -405 515 -513 74 -37 213 -84
307 -104 116 -24 371 -24 486 1 496 106 841 462 927 953 20 112 19 315 -1 434
-84 493 -460 868 -954 953 -114 19 -324 20 -431 0z m456 -438 c247 -84 410
-288 455 -569 18 -110 8 -330 -19 -425 -44 -152 -138 -298 -244 -377 -77 -59
-113 -77 -207 -106 -66 -21 -94 -24 -230 -23 -141 0 -162 3 -235 27 -44 15
-102 40 -130 56 -238 138 -372 453 -335 790 32 296 180 513 413 608 105 43
170 53 317 49 115 -2 147 -7 215 -30z"/>
<path d="M6290 2945 l0 -1167 498 5 c534 5 570 8 752 63 383 116 649 391 746
770 64 255 46 570 -46 801 -140 348 -420 573 -832 665 -86 20 -132 21 -605 25
l-513 5 0 -1167z m899 765 c210 -22 324 -73 452 -200 96 -96 143 -178 180
-316 32 -115 32 -383 0 -499 -68 -257 -230 -418 -486 -486 -68 -18 -118 -22
-327 -26 l-248 -5 0 771 0 771 168 0 c92 0 209 -5 261 -10z"/>
<path d="M4580 3647 c-58 -29 -187 -92 -287 -139 l-183 -88 39 -60 c92 -142
126 -289 118 -510 -6 -167 -21 -239 -77 -355 -91 -189 -244 -315 -436 -361
-100 -24 -286 -22 -387 5 -118 31 -211 84 -292 165 -111 112 -188 281 -202
443 -3 40 -8 73 -11 73 -3 0 -172 -80 -375 -177 -356 -171 -370 -179 -400
-222 -135 -197 -323 -292 -606 -308 l-114 -6 -451 -217 -451 -216 -3 -63 -3
-62 628 4 c591 3 634 5 724 24 265 58 492 171 657 328 l67 63 86 -83 c182
-173 411 -289 676 -342 133 -27 434 -24 565 5 208 46 387 127 549 249 210 158
371 384 453 637 106 323 91 709 -39 1017 -26 62 -131 251 -138 248 -1 0 -49
-24 -107 -52z"/>
<path d="M9328 3645 c-99 -17 -186 -46 -283 -95 -105 -54 -160 -96 -245 -187
-119 -128 -190 -272 -226 -459 -22 -119 -15 -352 15 -472 81 -323 324 -566
645 -646 259 -65 561 -25 774 103 206 122 351 319 418 566 21 79 30 326 15
425 -17 108 -65 243 -119 335 -64 110 -211 255 -315 314 -201 113 -447 155
-679 116z m311 -414 c157 -49 272 -174 316 -346 20 -78 20 -271 0 -350 -65
-253 -282 -404 -530 -368 -188 27 -311 139 -371 339 -23 75 -26 301 -5 384 31
122 115 242 209 297 107 63 262 81 381 44z"/>
<path d="M11408 3644 c-345 -62 -604 -302 -700 -649 -19 -70 -22 -105 -22
-285 -1 -241 13 -308 94 -475 134 -278 379 -442 707 -475 370 -38 699 113 866
398 37 64 84 174 93 222 l7 30 -249 0 -249 0 -19 -45 c-25 -63 -97 -139 -159
-169 -102 -50 -263 -53 -371 -6 -104 44 -193 163 -233 311 -24 88 -23 317 0
413 35 142 121 257 232 312 56 27 68 29 175 29 104 0 121 -3 172 -27 74 -35
148 -104 178 -168 l23 -50 250 0 249 0 -7 38 c-4 20 -21 71 -38 112 -109 263
-358 447 -660 489 -104 14 -244 12 -339 -5z"/>
<path d="M16355 3654 c-140 -23 -286 -97 -397 -203 l-78 -74 0 127 0 126 -235
0 -235 0 0 -1365 0 -1365 233 2 232 3 5 563 5 563 45 -46 c97 -101 235 -180
368 -211 92 -22 286 -22 371 0 144 37 255 96 357 190 360 328 403 1002 89
1398 -94 119 -253 225 -405 268 -74 21 -283 35 -355 24z m107 -415 c78 -17
164 -64 228 -125 97 -93 148 -211 157 -364 16 -300 -160 -543 -419 -579 -249
-34 -466 116 -533 370 -20 74 -19 255 1 333 36 140 134 264 255 323 106 52
201 65 311 42z"/>
<path d="M18195 3654 c-229 -37 -411 -135 -504 -275 -56 -84 -81 -170 -81
-279 0 -155 50 -268 158 -356 98 -80 185 -116 467 -193 273 -75 351 -109 393
-171 19 -28 23 -44 19 -82 -5 -63 -42 -109 -114 -145 -52 -25 -68 -28 -163
-28 -95 0 -111 3 -168 29 -76 35 -137 99 -156 165 l-13 46 -234 0 -234 0 3
-39 c11 -126 99 -280 216 -378 235 -198 631 -251 957 -128 116 43 246 156 299
260 66 129 70 320 9 441 -32 64 -108 147 -176 192 -81 53 -208 102 -398 152
-164 44 -297 89 -343 117 -46 28 -76 90 -69 146 12 111 126 172 295 159 134
-10 236 -83 263 -188 l13 -49 223 0 c148 0 223 4 223 10 0 43 -38 178 -67 240
-49 103 -166 220 -274 273 -117 58 -211 78 -374 82 -77 2 -153 1 -170 -1z"/>
</g>
</svg>
