<svg width="20" height="20" viewBox="0 0 20 20" fill="none" xmlns="http://www.w3.org/2000/svg">
<path fill-rule="evenodd" clip-rule="evenodd" d="M19.4516 3.41575C19.6438 3.70687 19.6118 4.10248 19.3555 4.35876L10.1631 13.5511C10.0689 13.6454 9.95127 13.7128 9.82235 13.7465L5.99392 14.7465C5.86905 14.7791 5.74035 14.7784 5.61941 14.7476C5.49085 14.7149 5.37108 14.6482 5.27406 14.5511C5.08578 14.3629 5.01145 14.0889 5.07874 13.8313L6.07874 10.0028C6.1082 9.89003 6.1635 9.77861 6.23998 9.69121L15.4664 0.46967C15.5472 0.388906 15.6445 0.32846 15.7504 0.291631C15.8289 0.264324 15.9121 0.25 15.9968 0.25C16.1957 0.25 16.3864 0.329017 16.5271 0.46967L19.3555 3.2981C19.3921 3.33471 19.4242 3.37416 19.4516 3.41575ZM17.7645 3.82843L15.9968 2.06066L7.4786 10.5788L6.85361 12.9716L9.24638 12.3466L17.7645 3.82843Z" fill="#007BFF"/>
<path d="M17.6381 15.1603C17.9115 12.8227 17.9985 10.4688 17.8991 8.12079C17.8943 8.00837 17.9366 7.89898 18.0162 7.81942L18.9995 6.83609C19.1204 6.71519 19.327 6.79194 19.3383 6.96254C19.5232 9.75219 19.4531 12.5545 19.128 15.3346C18.8914 17.3571 17.2671 18.9421 15.255 19.167C11.7884 19.5544 8.20511 19.5544 4.73853 19.167C2.72648 18.9421 1.10214 17.3571 0.865591 15.3346C0.451053 11.7903 0.451053 8.20973 0.865591 4.66543C1.10214 2.6429 2.72648 1.05789 4.73853 0.833012C7.36828 0.539099 10.0652 0.468149 12.7274 0.620161C12.899 0.629958 12.9772 0.837575 12.8557 0.959093L11.8631 1.95165C11.7844 2.03034 11.6765 2.07261 11.5653 2.06885C9.33888 1.99376 7.09732 2.07872 4.90514 2.32373C3.57504 2.47239 2.50955 3.522 2.35544 4.83968C1.95444 8.26821 1.95444 11.7318 2.35544 15.1603C2.50955 16.478 3.57504 17.5276 4.90514 17.6763C8.26099 18.0513 11.7326 18.0513 15.0884 17.6763C16.4185 17.5276 17.484 16.478 17.6381 15.1603Z" fill="#007BFF"/>
</svg>
