<svg width="1930" height="338" viewBox="0 0 1930 338" fill="none" xmlns="http://www.w3.org/2000/svg">
<path d="M677.758 3.47737C703.231 3.47737 725.579 8.46118 744.799 18.43C764.252 28.3989 779.189 42.6561 789.61 61.2017C800.263 79.5162 805.589 100.844 805.589 125.185C805.589 149.527 800.263 170.854 789.61 189.169C779.189 207.251 764.252 221.276 744.799 231.245C725.579 241.214 703.231 246.198 677.758 246.198H593V3.47737H677.758ZM676.021 204.817C701.494 204.817 721.178 197.862 735.073 183.953C748.968 170.043 755.915 150.454 755.915 125.185C755.915 99.9159 748.968 80.2117 735.073 66.07C721.178 51.6973 701.494 44.5103 676.021 44.5103H641.631V204.817H676.021ZM927.444 249.327C908.918 249.327 892.244 245.27 877.423 237.156C862.601 228.811 850.907 217.103 842.339 202.035C834.002 186.967 829.833 169.58 829.833 149.874C829.833 130.169 834.117 112.782 842.686 97.714C851.486 82.6458 863.413 71.0538 878.465 62.9403C893.517 54.5947 910.307 50.4218 928.833 50.4218C947.359 50.4218 964.149 54.5947 979.201 62.9403C994.253 71.0538 1006.06 82.6458 1014.63 97.714C1023.43 112.782 1027.83 130.169 1027.83 149.874C1027.83 169.58 1023.32 186.967 1014.29 202.035C1005.49 217.103 993.443 228.811 978.159 237.156C963.107 245.27 946.201 249.327 927.444 249.327ZM927.444 206.903C936.243 206.903 944.464 204.817 952.107 200.644C959.981 196.239 966.233 189.749 970.864 181.171C975.496 172.593 977.812 162.161 977.812 149.874C977.812 131.56 972.949 117.535 963.222 107.798C953.728 97.8295 942.033 92.8457 928.138 92.8457C914.244 92.8457 902.548 97.8295 893.054 107.798C883.791 117.535 879.16 131.56 879.16 149.874C879.16 168.189 883.675 182.329 892.707 192.298C901.97 202.035 913.549 206.903 927.444 206.903ZM1051 149.874C1051 129.938 1055.05 112.551 1063.16 97.714C1071.26 82.6458 1082.49 71.0538 1096.85 62.9403C1111.21 54.5947 1127.65 50.4218 1146.18 50.4218C1170.03 50.4218 1189.71 56.4488 1205.23 68.5041C1220.97 80.3272 1231.52 97.0185 1236.84 118.578H1184.39C1181.61 110.233 1176.86 103.741 1170.15 99.1049C1163.66 94.2366 1155.56 91.8025 1145.83 91.8025C1131.94 91.8025 1120.94 96.903 1112.83 107.103C1104.73 117.072 1100.67 131.329 1100.67 149.874C1100.67 168.189 1104.73 182.446 1112.83 192.646C1120.94 202.615 1131.94 207.599 1145.83 207.599C1165.52 207.599 1178.37 198.79 1184.39 181.171H1236.84C1231.52 202.035 1220.97 218.611 1205.23 230.897C1189.49 243.183 1169.8 249.327 1146.18 249.327C1127.65 249.327 1111.21 245.27 1096.85 237.156C1082.49 228.811 1071.26 217.22 1063.16 202.383C1055.05 187.315 1051 169.811 1051 149.874ZM1385.02 248.632C1362.32 248.632 1341.47 243.3 1322.49 232.636C1303.5 221.972 1288.45 207.251 1277.33 188.473C1266.22 169.463 1260.66 148.02 1260.66 124.142C1260.66 100.496 1266.22 79.284 1277.33 60.5062C1288.45 41.4962 1303.5 26.6602 1322.49 15.9959C1341.47 5.33155 1362.32 0 1385.02 0C1407.94 0 1428.79 5.33155 1447.54 15.9959C1466.53 26.6602 1481.46 41.4962 1492.35 60.5062C1503.47 79.284 1509.03 100.496 1509.03 124.142C1509.03 148.02 1503.47 169.463 1492.35 188.473C1481.46 207.251 1466.53 221.972 1447.54 232.636C1428.55 243.3 1407.71 248.632 1385.02 248.632ZM1385.02 205.165C1399.61 205.165 1412.46 201.92 1423.58 195.428C1434.69 188.706 1443.38 179.2 1449.63 166.914C1455.88 154.627 1459.01 140.37 1459.01 124.142C1459.01 107.914 1455.88 93.7734 1449.63 81.7181C1443.38 69.4318 1434.69 60.043 1423.58 53.5515C1412.46 47.06 1399.61 43.8148 1385.02 43.8148C1370.43 43.8148 1357.45 47.06 1346.11 53.5515C1335 60.043 1326.31 69.4318 1320.06 81.7181C1313.81 93.7734 1310.68 107.914 1310.68 124.142C1310.68 140.37 1313.81 154.627 1320.06 166.914C1326.31 179.2 1335 188.706 1346.11 195.428C1357.45 201.92 1370.43 205.165 1385.02 205.165ZM1593.84 81.3704C1600.09 72.5615 1608.66 65.259 1619.54 59.463C1630.66 53.436 1643.27 50.4218 1657.4 50.4218C1673.84 50.4218 1688.67 54.4792 1701.87 62.5926C1715.3 70.706 1725.84 82.2981 1733.48 97.3663C1741.35 112.203 1745.29 129.474 1745.29 149.179C1745.29 168.885 1741.35 186.387 1733.48 201.687C1725.84 216.755 1715.3 228.463 1701.87 236.809C1688.67 245.154 1673.84 249.327 1657.4 249.327C1643.27 249.327 1630.77 246.43 1619.89 240.634C1609.23 234.838 1600.55 227.535 1593.84 218.726V338H1545.2V53.5515H1593.84V81.3704ZM1695.61 149.179C1695.61 137.588 1693.18 127.619 1688.32 119.274C1683.69 110.696 1677.44 104.205 1669.56 99.8004C1661.92 95.3953 1653.58 93.1934 1644.55 93.1934C1635.76 93.1934 1627.42 95.5121 1619.54 100.148C1611.9 104.553 1605.65 111.043 1600.78 119.621C1596.16 128.199 1593.84 138.284 1593.84 149.874C1593.84 161.465 1596.16 171.55 1600.78 180.128C1605.65 188.706 1611.9 195.312 1619.54 199.949C1627.42 204.354 1635.76 206.556 1644.55 206.556C1653.58 206.556 1661.92 204.237 1669.56 199.601C1677.44 194.965 1683.69 188.358 1688.32 179.78C1693.18 171.202 1695.61 161.002 1695.61 149.179ZM1854.27 249.327C1838.52 249.327 1824.4 246.545 1811.9 240.982C1799.39 235.186 1789.43 227.42 1782.02 217.683C1774.84 207.947 1770.91 197.167 1770.21 185.344H1819.19C1820.11 192.762 1823.71 198.905 1829.96 203.774C1836.43 208.642 1844.42 211.076 1853.93 211.076C1863.18 211.076 1870.36 209.222 1875.46 205.512C1880.79 201.803 1883.45 197.051 1883.45 191.255C1883.45 184.996 1880.2 180.36 1873.73 177.346C1867.47 174.101 1857.4 170.623 1843.51 166.914C1829.14 163.436 1817.33 159.843 1808.07 156.134C1799.04 152.424 1791.16 146.745 1784.45 139.095C1777.96 131.444 1774.73 121.128 1774.73 108.146C1774.73 97.4818 1777.73 87.7451 1783.76 78.9362C1790.01 70.1273 1798.81 63.1726 1810.16 58.072C1821.73 52.9715 1835.28 50.4218 1850.8 50.4218C1873.73 50.4218 1892.01 56.2178 1905.68 67.8086C1919.34 79.1685 1926.87 94.5844 1928.26 114.058H1881.72C1881.02 106.407 1877.77 100.38 1871.99 95.9753C1866.43 91.3392 1858.9 89.0206 1849.41 89.0206C1840.6 89.0206 1833.78 90.6438 1828.92 93.8889C1824.28 97.134 1821.97 101.655 1821.97 107.451C1821.97 113.942 1825.21 118.926 1831.7 122.403C1838.17 125.648 1848.24 129.01 1861.92 132.488C1875.81 135.965 1887.27 139.558 1896.31 143.267C1905.34 146.977 1913.09 152.772 1919.58 160.654C1926.29 168.305 1929.76 178.504 1930 191.255C1930 202.383 1926.87 212.352 1920.62 221.16C1914.59 229.969 1905.8 236.924 1894.22 242.025C1882.87 246.893 1869.56 249.327 1854.27 249.327Z" fill="black"/>
<path d="M295.104 0.766052C264.404 3.96605 232.304 19.3661 211.304 40.8661L207.104 45.2661L201.804 40.3661C180.104 19.8661 152.404 8.06605 118.804 4.66605C111.604 3.96605 88.4041 3.66605 54.1041 3.86605L0.604069 4.16605L0.304069 106.866C0.104069 188.866 0.304069 209.666 1.30407 209.566C2.00407 209.566 16.8041 202.666 34.1041 194.366L65.6041 179.066L65.9041 119.366L66.1041 59.6661H86.9041C110.004 59.6661 116.904 60.4661 128.704 64.5661C152.604 72.7661 168.704 92.8661 173.104 120.166C173.604 123.366 174.204 126.166 174.504 126.366C174.704 126.566 192.104 118.566 213.104 108.466L251.204 90.2661L256.204 83.9661C268.204 68.6661 284.504 60.6661 307.304 59.0661L317.604 58.3661L353.404 41.2661C373.004 31.9661 389.004 23.7661 388.804 23.2661C388.304 21.8661 370.004 12.2661 362.104 9.16606C341.804 1.36606 318.304 -1.53395 295.104 0.766052Z" fill="#007BFF"/>
<path d="M412.1 60.9659C406.3 63.8659 393.4 70.1659 383.4 74.8659L365.1 83.6659L369 89.6659C378.2 103.866 381.6 118.566 380.8 140.666C380.2 157.366 378.7 164.566 373.1 176.166C364 195.066 348.7 207.666 329.5 212.266C319.5 214.666 300.9 214.466 290.8 211.766C279 208.666 269.7 203.366 261.6 195.266C250.5 184.066 242.8 167.166 241.4 150.966C241.1 146.966 240.6 143.666 240.3 143.666C240 143.666 223.1 151.666 202.8 161.366C167.2 178.466 165.8 179.266 162.8 183.566C149.3 203.266 130.5 212.766 102.2 214.366L90.8 214.966L45.7 236.666L0.6 258.266L0.3 264.566L0 270.766L62.8 270.366C121.9 270.066 126.2 269.866 135.2 267.966C161.7 262.166 184.4 250.866 200.9 235.166L207.6 228.866L216.2 237.166C234.4 254.466 257.3 266.066 283.8 271.366C297.1 274.066 327.2 273.766 340.3 270.866C361.1 266.266 379 258.166 395.2 245.966C416.2 230.166 432.3 207.566 440.5 182.266C451.1 149.966 449.6 111.366 436.6 80.5659C434 74.3659 423.5 55.4659 422.8 55.7659C422.7 55.7659 417.9 58.1659 412.1 60.9659Z" fill="#007BFF"/>
</svg>
