<svg width="24" height="24" viewBox="0 0 24 24" fill="none" xmlns="http://www.w3.org/2000/svg">
<path d="M9.49796 15.2501C9.08374 15.2501 8.74796 15.5859 8.74796 16.0001C8.74796 16.4143 9.08374 16.7501 9.49796 16.7501H11.248V18.5001C11.248 18.9143 11.5837 19.2501 11.998 19.2501C12.4122 19.2501 12.748 18.9143 12.748 18.5001V16.7501H14.498C14.9122 16.7501 15.248 16.4143 15.248 16.0001C15.248 15.5859 14.9122 15.2501 14.498 15.2501H12.748V13.5001C12.748 13.0859 12.4122 12.7501 11.998 12.7501C11.5837 12.7501 11.248 13.0859 11.248 13.5001V15.2501H9.49796Z" fill="black"/>
<path fill-rule="evenodd" clip-rule="evenodd" d="M7.24796 5.46126V6.69904C6.87867 6.7269 6.50956 6.758 6.14068 6.79236C4.47159 6.94781 3.19531 8.34848 3.19531 10.0248V17.9754C3.19531 19.6517 4.47159 21.0523 6.14068 21.2078C10.0371 21.5707 13.9588 21.5707 17.8552 21.2078C19.5243 21.0523 20.8006 19.6517 20.8006 17.9754V10.0248C20.8006 8.34848 19.5243 6.94781 17.8552 6.79236C17.4863 6.758 17.1172 6.7269 16.748 6.69905V5.46126C16.748 4.59501 16.1142 3.85912 15.2576 3.73062L14.0376 3.54763C12.6854 3.3448 11.3105 3.3448 9.95827 3.54763L8.73836 3.73062C7.8817 3.85912 7.24796 4.59501 7.24796 5.46126ZM13.8151 5.03104C12.6104 4.85033 11.3855 4.85033 10.1808 5.03104L8.96087 5.21402C8.83849 5.23238 8.74796 5.33751 8.74796 5.46126V6.60385C10.9132 6.49229 13.0827 6.49229 15.248 6.60385V5.46126C15.248 5.33751 15.1574 5.23238 15.035 5.21402L13.8151 5.03104ZM17.7161 8.28589C13.9122 7.93161 10.0837 7.93161 6.27978 8.28589C5.38189 8.36952 4.69531 9.12301 4.69531 10.0248V10.2501H19.3006V10.0248C19.3006 9.12301 18.614 8.36952 17.7161 8.28589ZM19.3006 11.7501H4.69531V17.9754C4.69531 18.8771 5.38189 19.6306 6.27978 19.7143C10.0837 20.0685 13.9122 20.0685 17.7161 19.7143C18.614 19.6306 19.3006 18.8771 19.3006 17.9754V11.7501Z" fill="black"/>
</svg>
